# xmcd CD database file
#
# Track frame offsets:
#	150
#	13886
#	23429
#	33108
#	48909
#	60151
#	67980
#	80428
#	90914
#	104883
#	123066
#	137310
#
# Disc length: 2001 seconds
#
# Revision: 0
# Processed by: cddbd v1.5.1PL0 Copyright (c) Steve Scherf et al.
# Submitted via: CDex 1.50
#
DISCID=8107cf0c
DTITLE=Tony Bennett - Swingin' The Bluesw
DYEAR=1900
DGENRE=Jazz
TTITLE0=I've Grown Accustomed To Her Face
TTITLE1=Chicago
TTITLE2=Jeepers Creepers
TTITLE3=Poor Little Rich Girl
TTITLE4=With Plenty Of Money And You
TTITLE5=Guess I'll Have To Change My Plans
TTITLE6=Are You Having Any Fun
TTITLE7=Anything Goes
TTITLE8=Swinging The Blues
TTITLE9=Lester Leaps In
TTITLE10=Every Tub
TTITLE11=Out Of The Window
EXTD=
EXTT0=
EXTT1=
EXTT2=
EXTT3=
EXTT4=
EXTT5=
EXTT6=
EXTT7=
EXTT8=
EXTT9=
EXTT10=
EXTT11=
PLAYORDER=
